<svg width="216" height="220" viewBox="0 0 216 220" fill="none" xmlns="http://www.w3.org/2000/svg">
<path d="M66.9901 7.7C81.9088 3.64375 97.7626 0 107.25 0C116.738 0 132.591 3.64375 147.51 7.7C162.773 11.825 178.159 16.7062 187.206 19.6625C190.989 20.9117 194.343 23.2026 196.882 26.2721C199.421 29.3416 201.043 33.0652 201.561 37.015C209.756 98.5738 190.74 144.196 167.668 174.378C157.88 187.285 146.214 198.654 133.059 208.106C128.515 211.385 123.693 214.26 118.649 216.7C114.799 218.515 110.66 220 107.25 220C103.84 220 99.7151 218.515 95.8513 216.7C90.807 214.26 85.9854 211.385 81.4413 208.106C68.286 198.654 56.6204 187.285 46.8326 174.378C23.7601 144.196 4.74382 98.5738 12.9388 37.015C13.457 33.0652 15.0789 29.3416 17.6182 26.2721C20.1574 23.2026 23.5111 20.9117 27.2938 19.6625C40.4286 15.3589 53.6644 11.3702 66.9901 7.7Z" fill="#FF3B30"/>
<path d="M110.85 148.908L125.46 58.5648C125.674 57.2403 125.21 55.8966 124.224 54.9867L109.614 41.5036C108.082 40.0896 105.721 40.0896 104.189 41.5036L89.5789 54.9867C88.5929 55.8966 88.1288 57.2403 88.343 58.5648L102.953 148.908C103.677 153.39 110.125 153.39 110.85 148.908Z" fill="#FF9500"/>
<circle cx="107" cy="167" r="9" fill="#FF9500"/>
</svg>
