<svg width="216" height="220" viewBox="0 0 216 220" fill="none" xmlns="http://www.w3.org/2000/svg">
<path d="M66.9901 7.7C81.9088 3.64375 97.7626 0 107.25 0C116.738 0 132.591 3.64375 147.51 7.7C162.773 11.825 178.159 16.7062 187.206 19.6625C190.989 20.9117 194.343 23.2026 196.882 26.2721C199.421 29.3416 201.043 33.0652 201.561 37.015C209.756 98.5738 190.74 144.196 167.668 174.378C157.88 187.285 146.214 198.654 133.059 208.106C128.515 211.385 123.693 214.26 118.649 216.7C114.799 218.515 110.66 220 107.25 220C103.84 220 99.7151 218.515 95.8513 216.7C90.807 214.26 85.9854 211.385 81.4413 208.106C68.286 198.654 56.6204 187.285 46.8326 174.378C23.7601 144.196 4.74382 98.5738 12.9388 37.015C13.457 33.0652 15.0789 29.3416 17.6182 26.2721C20.1574 23.2026 23.5111 20.9117 27.2938 19.6625C40.4286 15.3589 53.6644 11.3702 66.9901 7.7Z" fill="#34C759"/>
<path d="M67.424 122.738C65.6449 123.233 64.204 121.258 65.2173 119.714L120.497 35.492C121.853 33.4255 125.016 35.1727 123.988 37.4205L97.9593 94.3215C97.2648 95.8398 98.6261 97.49 100.249 97.0967L142.189 86.9304C143.905 86.5146 145.278 88.3624 144.385 89.8851L89.5968 183.343C88.3456 185.477 85.0963 183.888 86.0142 181.591L113.287 113.331C113.901 111.794 112.49 110.219 110.895 110.662L67.424 122.738Z" fill="white"/>
</svg>
